<?xml version="1.0" encoding="utf-8"?>
<!-- Generator: Adobe Illustrator 16.0.0, SVG Export Plug-In . SVG Version: 6.00 Build 0)  -->
<!DOCTYPE svg PUBLIC "-//W3C//DTD SVG 1.1//EN" "http://www.w3.org/Graphics/SVG/1.1/DTD/svg11.dtd">
<svg version="1.1" id="Calque_1" xmlns="http://www.w3.org/2000/svg" xmlns:xlink="http://www.w3.org/1999/xlink" x="0px" y="0px"
	 width="560px" height="560px" viewBox="0 0 560 560" enable-background="new 0 0 560 560" xml:space="preserve">
<g>
	<g>
		<g>
			<path fill="#474849" d="M428.03,183.114c0,0,3.311,3.303,6.031,2.415c2.725-0.889,12.088-6.122,12.088-6.122l-3.639-8.064
				L428.03,183.114z"/>
			<path fill="#474849" d="M424.237,132.021c11.055,7.109,18.035,19.839,17.006,33.877c-0.521,7.181-3.225,14.216-7.182,19.63
				c27.576-8.38,48.518-33.027,50.744-63.52c0.998-13.659-1.889-26.707-7.721-38.051c-5.801-10.697-17.127-18.91-30.154-19.86
				c-20.346-1.496-38.041,13.8-39.529,34.153C406.38,112.212,413.255,124.928,424.237,132.021z"/>
		</g>
		<path fill="#16F28D" d="M418.204,129.606c11.057,7.11,18.035,19.839,17.006,33.877c-0.521,7.18-3.225,14.216-7.18,19.63
			c27.574-8.38,48.512-33.027,50.738-63.521c1-13.657-1.883-26.707-7.719-38.051c-5.799-10.698-17.127-18.908-30.152-19.861
			c-20.344-1.495-38.039,13.801-39.529,34.154C400.349,109.796,407.22,122.513,418.204,129.606z"/>
	</g>
	<g>
		<path fill="#1FDB8A" d="M235.232,401.806c-13.961,0-27.167-8.376-32.664-22.139L94.868,109.93
			c-7.206-18.043,1.573-38.516,19.603-45.726c18.037-7.209,38.493,1.573,45.697,19.617L267.87,353.56
			c7.204,18.043-1.574,38.517-19.602,45.727C243.99,400.994,239.572,401.806,235.232,401.806z"/>
	</g>
	<g>
		<path fill="#1FDB8A" d="M370.587,410.913c-14.322,0-27.877-8.593-33.516-22.72L226.549,111.4
			c-7.393-18.516,1.615-39.522,20.116-46.922c18.507-7.396,39.5,1.615,46.895,20.13l110.52,276.8
			c7.398,18.512-1.611,39.52-20.113,46.922C379.575,410.082,375.044,410.913,370.587,410.913z"/>
	</g>
	<path fill="#1FDB8A" d="M238.562,411.581c-4.457,0-8.986-0.832-13.377-2.589c-18.505-7.395-27.513-28.408-20.119-46.92
		l61.68-154.475c7.396-18.519,28.383-27.53,46.895-20.131c18.504,7.398,27.514,28.407,20.115,46.922l-61.681,154.472
		C266.436,402.985,252.884,411.581,238.562,411.581z"/>
	<path fill="#1FDB8A" d="M216.433,407c0,0,12.211,7.055,30.642,3.15l-2.376-3.15H216.433z"/>
	<g>
		<path fill="#373B3D" d="M231.966,410.938c-4.458,0-8.985-0.831-13.377-2.587c-18.505-7.399-27.514-28.409-20.118-46.922
			l61.679-154.476c7.395-18.517,28.382-27.529,46.894-20.129c18.502,7.398,27.514,28.407,20.115,46.922l-61.68,154.473
			C259.839,402.342,246.287,410.938,231.966,410.938z"/>
	</g>
	<g>
		<path fill="#373B3D" d="M231.623,410.913c-14.328,0-27.877-8.593-33.517-22.72L87.585,111.4
			c-7.395-18.516,1.613-39.522,20.114-46.922c18.51-7.396,39.501,1.615,46.894,20.13l110.522,276.8
			c7.394,18.512-1.615,39.52-20.115,46.922C240.609,410.082,236.076,410.913,231.623,410.913z"/>
	</g>
	<path fill="#1FDB8A" d="M357.097,410.007c0,0,11.191,2.849,23.141-0.418l-1.887-2.157L357.097,410.007z"/>
	<g>
		<path fill="#373B3D" d="M365.118,410.913c-14.322,0-27.877-8.593-33.516-22.72L221.08,111.4
			c-7.393-18.516,1.615-39.522,20.116-46.922c18.507-7.396,39.499,1.615,46.893,20.13l110.521,276.8
			c7.398,18.512-1.611,39.52-20.113,46.922C374.106,410.082,369.575,410.913,365.118,410.913z"/>
	</g>
</g>
<path fill="#373B3D" d="M353.081,490.243c-1.936-0.655-4.16-0.268-5.766,1.219c-0.82,0.76-1.414,1.772-1.688,2.776
	c-1.658-4.164-0.693-9.098,2.795-12.326c1.564-1.447,3.428-2.362,5.373-2.755c1.861-0.332,3.961,0.25,5.338,1.738
	c2.158,2.327,2.012,5.959-0.314,8.116C357.222,490.488,355.009,490.889,353.081,490.243z"/>
<path fill="#373B3D" d="M271.856,484.19c-0.002,0.763,0.288,0.362,1.529-0.3c1.406-0.75,3.25-1.344,3.25-1.344
	c3.062-0.719,6.125-0.312,9-0.188c1.689,0.073,3.291,0.584,4.867,1.195c1.574,0.612,2.975,1.523,4.199,2.734
	c1.223,1.211,2.199,2.729,2.93,4.551c0.729,1.823,1.094,3.959,1.094,6.406l-0.039,17.656c0,2.475-0.502,4.375-1.504,5.703
	c-1.004,1.328-2.664,1.992-4.98,1.992c-2.188,0-3.73-0.664-4.629-1.992s-1.348-3.229-1.348-5.703v-17.109
	c0-1.224-0.164-2.298-0.488-3.223c-0.326-0.924-0.77-1.699-1.328-2.324c-0.561-0.625-1.23-1.094-2.012-1.406s-1.615-0.469-2.5-0.469
	c-1.068,0-2.084,0.176-3.047,0.527c-0.965,0.352-1.811,0.879-2.539,1.582c-0.73,0.703-1.309,1.582-1.738,2.637
	s-0.645,2.299-0.645,3.73v16.055c0,2.475-0.502,4.375-1.504,5.703c-1.004,1.328-2.664,1.992-4.98,1.992
	c-2.188,0-3.73-0.664-4.629-1.992s-1.348-3.229-1.348-5.703l-0.039-41.328c0-2.474,0.449-4.375,1.348-5.703s2.441-1.992,4.629-1.992
	c2.316,0,3.977,0.664,4.98,1.992c1.002,1.328,1.504,3.229,1.504,5.703"/>
<path fill="#373B3D" d="M320.874,469.395c0,0.859-0.195,1.621-0.586,2.285s-0.898,1.218-1.523,1.66
	c-0.625,0.443-1.348,0.775-2.168,0.996c-0.82,0.222-1.66,0.332-2.52,0.332c-0.912,0-1.777-0.117-2.598-0.352
	s-1.543-0.579-2.168-1.035c-0.625-0.455-1.121-1.009-1.484-1.66c-0.365-0.65-0.547-1.393-0.547-2.227
	c0-0.755,0.176-1.451,0.527-2.09c0.352-0.638,0.826-1.191,1.426-1.66c0.598-0.469,1.314-0.833,2.148-1.094
	c0.832-0.26,1.744-0.391,2.734-0.391c0.859,0,1.699,0.117,2.52,0.352s1.543,0.573,2.168,1.016c0.625,0.443,1.125,0.99,1.504,1.641
	C320.685,467.819,320.874,468.562,320.874,469.395z M320.288,514.902c0,2.475-0.502,4.375-1.504,5.703
	c-1.004,1.328-2.664,1.992-4.98,1.992c-2.188,0-3.73-0.664-4.629-1.992s-1.348-3.229-1.348-5.703v-23.906
	c0-2.474,0.449-4.375,1.348-5.703s2.441-1.992,4.629-1.992c2.316,0,3.977,0.664,4.98,1.992c1.002,1.328,1.504,3.229,1.504,5.703
	V514.902z"/>
<path fill="#373B3D" d="M341.929,514.902c0,2.475-0.502,4.375-1.504,5.703c-1.004,1.328-2.664,1.992-4.98,1.992
	c-2.188,0-3.73-0.664-4.629-1.992s-1.348-3.229-1.348-5.703v-25.781c0-0.963,0.176-1.81,0.527-2.539
	c0.352-0.729,0.82-1.328,1.406-1.797s1.256-0.833,2.012-1.094c0.754-0.26,1.549-0.391,2.383-0.391c2.031,0,3.561,0.651,4.59,1.953
	c0.697,0.884,1.158,2.062,1.383,3.533C341.874,489.483,341.929,514.902,341.929,514.902z"/>
<path fill="#373B3D" d="M400.015,501.66c0,1.068-0.352,1.862-1.055,2.383c-0.703,0.521-1.68,0.781-2.93,0.781h-24.18
	c0.129,3.151,1.035,5.593,2.715,7.324c1.68,1.732,4.238,2.598,7.676,2.598c1.119,0,2.168-0.071,3.145-0.215
	c0.977-0.143,1.934-0.338,2.871-0.586c0.938-0.247,1.875-0.527,2.812-0.84s1.914-0.638,2.93-0.977
	c0.338-0.13,0.637-0.195,0.898-0.195c0.859,0,1.549,0.332,2.07,0.996c0.52,0.664,0.781,1.439,0.781,2.324
	c0,0.521-0.092,1.016-0.273,1.484c-0.521,1.25-1.381,2.285-2.578,3.105c-1.199,0.82-2.578,1.472-4.141,1.953
	c-1.562,0.482-3.217,0.813-4.961,0.996c-1.746,0.182-3.412,0.273-5,0.273c-2.996,0-5.789-0.43-8.379-1.289
	c-2.592-0.859-4.838-2.135-6.738-3.828c-1.902-1.692-3.393-3.814-4.473-6.367c-1.082-2.552-1.621-5.508-1.621-8.867
	c0-2.812,0.52-5.442,1.562-7.891c1.041-2.447,2.492-4.57,4.355-6.367c1.861-1.797,4.074-3.216,6.641-4.258
	c2.564-1.041,5.383-1.562,8.457-1.562c3.332,0,6.211,0.515,8.633,1.543c2.422,1.029,4.426,2.409,6.016,4.141
	c1.588,1.732,2.773,3.75,3.555,6.055S399.987,499.108,400.015,501.66z M389.585,499.277c-0.078-1.38-0.32-2.656-0.723-3.828
	c-0.404-1.172-0.977-2.188-1.719-3.047s-1.654-1.529-2.734-2.012c-1.082-0.481-2.338-0.723-3.77-0.723
	c-1.303,0-2.48,0.254-3.535,0.762s-1.967,1.198-2.734,2.07c-0.77,0.873-1.367,1.889-1.797,3.047c-0.43,1.159-0.684,2.402-0.762,3.73
	H389.585z"/>
<path fill="#373B3D" d="M221.394,479.446l-8.281,32.305c-0.443,1.745-0.957,3.32-1.543,4.727s-1.309,2.598-2.168,3.574
	s-1.908,1.732-3.145,2.266c-1.236,0.534-2.729,0.801-4.473,0.801c-2.709,0-4.85-0.826-6.426-2.48
	c-1.576-1.653-2.793-4.225-3.652-7.715l-9.336-37.695c-0.182-0.703-0.273-1.406-0.273-2.109c0-1.016,0.176-1.939,0.527-2.773
	c0.352-0.833,0.82-1.543,1.406-2.129s1.256-1.041,2.012-1.367c0.756-0.325,1.537-0.488,2.344-0.488c0.678,0,1.354,0.131,2.031,0.391
	c0.678,0.261,1.309,0.664,1.895,1.211s1.107,1.25,1.562,2.109s0.814,1.889,1.074,3.086l7.852,37.109l7.886-30.447
	c0,0,0.813-6.067,5.812-6.001c4.797,0.205,5.474,4.615,5.739,5.588c1.481,5.444,2.366,9.148,3.786,14.552
	c1.42,5.404,2.857,10.827,4.316,16.27l7.812-37.539c0.234-1.067,0.586-1.998,1.055-2.793c0.469-0.794,1.016-1.458,1.641-1.992
	c0.625-0.533,1.303-0.931,2.031-1.191c0.729-0.26,1.459-0.391,2.188-0.391s1.439,0.131,2.129,0.391
	c0.689,0.261,1.295,0.658,1.816,1.191c0.521,0.534,0.943,1.186,1.27,1.953c0.326,0.769,0.488,1.66,0.488,2.676
	c0,0.808-0.117,1.68-0.352,2.617l-8.945,36.406c-0.416,1.667-0.904,3.21-1.465,4.629c-0.561,1.42-1.256,2.644-2.09,3.672
	c-0.834,1.029-1.83,1.83-2.988,2.402c-1.158,0.573-2.559,0.859-4.199,0.859c-1.615,0-3.008-0.26-4.18-0.781
	c-1.172-0.521-2.201-1.309-3.086-2.363s-1.654-2.389-2.305-4.004c-0.65-1.614-1.264-3.516-1.836-5.703l-7.93-30.82"/>
<g>
	<g>
		<g>
			<path fill="#474849" d="M428.03-648.886c0,0,3.311,3.303,6.031,2.415c2.725-0.889,12.088-6.122,12.088-6.122l-3.639-8.064
				L428.03-648.886z"/>
			<path fill="#474849" d="M424.237-699.979c11.055,7.109,18.035,19.839,17.006,33.877c-0.521,7.181-3.225,14.216-7.182,19.63
				c27.576-8.38,48.518-33.027,50.744-63.52c0.998-13.659-1.889-26.707-7.721-38.051c-5.801-10.697-17.127-18.91-30.154-19.86
				c-20.346-1.496-38.041,13.8-39.529,34.153C406.38-719.788,413.255-707.072,424.237-699.979z"/>
		</g>
		<path fill="#16F28D" d="M418.204-702.394c11.057,7.11,18.035,19.839,17.006,33.877c-0.521,7.18-3.225,14.216-7.18,19.63
			c27.574-8.38,48.512-33.027,50.738-63.521c1-13.657-1.883-26.707-7.719-38.051c-5.799-10.698-17.127-18.908-30.152-19.861
			c-20.344-1.495-38.039,13.801-39.529,34.154C400.349-722.204,407.22-709.487,418.204-702.394z"/>
	</g>
	<g>
		<path fill="#1FDB8A" d="M235.232-430.194c-13.961,0-27.167-8.376-32.664-22.139L94.868-722.07
			c-7.206-18.043,1.573-38.516,19.603-45.726c18.037-7.209,38.493,1.573,45.697,19.617L267.87-478.44
			c7.204,18.043-1.574,38.517-19.602,45.727C243.99-431.006,239.572-430.194,235.232-430.194z"/>
	</g>
	<g>
		<path fill="#1FDB8A" d="M370.587-421.087c-14.322,0-27.877-8.593-33.516-22.72L226.549-720.6
			c-7.393-18.516,1.615-39.522,20.116-46.922c18.507-7.396,39.5,1.615,46.895,20.13l110.52,276.8
			c7.398,18.512-1.611,39.52-20.113,46.922C379.575-421.918,375.044-421.087,370.587-421.087z"/>
	</g>
	<path fill="#1FDB8A" d="M238.562-420.419c-4.457,0-8.986-0.832-13.377-2.589c-18.505-7.395-27.513-28.408-20.119-46.92
		l61.68-154.475c7.396-18.519,28.383-27.53,46.895-20.131c18.504,7.398,27.514,28.407,20.115,46.922l-61.681,154.472
		C266.436-429.015,252.884-420.419,238.562-420.419z"/>
	<path fill="#1FDB8A" d="M216.433-425c0,0,12.211,7.055,30.642,3.15l-2.376-3.15H216.433z"/>
	<g>
		<path fill="#373B3D" d="M231.966-421.062c-4.458,0-8.985-0.831-13.377-2.587c-18.505-7.399-27.514-28.409-20.118-46.922
			l61.679-154.476c7.395-18.517,28.382-27.529,46.894-20.129c18.502,7.398,27.514,28.407,20.115,46.922l-61.68,154.473
			C259.839-429.658,246.287-421.062,231.966-421.062z"/>
	</g>
	<g>
		<path fill="#373B3D" d="M231.623-421.087c-14.328,0-27.877-8.593-33.517-22.72L87.585-720.6
			c-7.395-18.516,1.613-39.522,20.114-46.922c18.51-7.396,39.501,1.615,46.894,20.13l110.522,276.8
			c7.394,18.512-1.615,39.52-20.115,46.922C240.609-421.918,236.076-421.087,231.623-421.087z"/>
	</g>
	<path fill="#1FDB8A" d="M357.097-421.993c0,0,11.191,2.849,23.141-0.418l-1.887-2.157L357.097-421.993z"/>
	<g>
		<path fill="#373B3D" d="M365.118-421.087c-14.322,0-27.877-8.593-33.516-22.72L221.08-720.6
			c-7.393-18.516,1.615-39.522,20.116-46.922c18.507-7.396,39.499,1.615,46.893,20.13l110.521,276.8
			c7.398,18.512-1.611,39.52-20.113,46.922C374.106-421.918,369.575-421.087,365.118-421.087z"/>
	</g>
</g>
<path fill="#16F28D" d="M1074.334-611.785c-11.235-3.801-24.14-1.551-33.452,7.071c-4.754,4.408-8.204,10.282-9.79,16.105
	c-9.613-24.155-4.023-52.776,16.213-71.504c9.076-8.396,19.885-13.704,31.171-15.982c10.797-1.926,22.978,1.45,30.97,10.084
	c12.515,13.5,11.671,34.569-1.829,47.083C1098.348-610.362,1085.518-608.04,1074.334-611.785z"/>
<path fill="#373B3D" d="M603.137-646.897c-0.012,4.425,1.677,2.102,8.872-1.739c8.157-4.351,18.853-7.795,18.853-7.795
	c17.766-4.17,35.531-1.813,52.21-1.088c9.807,0.425,19.093,3.388,28.235,6.934c9.137,3.552,17.256,8.838,24.359,15.862
	c7.098,7.025,12.764,15.828,16.995,26.399c4.227,10.577,6.346,22.966,6.346,37.163l-0.227,102.426
	c0,14.356-2.912,25.38-8.724,33.084c-5.819,7.705-15.449,11.558-28.894,11.558c-12.689,0-21.641-3.853-26.853-11.558
	c-5.211-7.704-7.817-18.728-7.817-33.084v-99.253c0-7.098-0.946-13.331-2.833-18.695c-1.892-5.36-4.458-9.857-7.704-13.483
	c-3.253-3.626-7.138-6.345-11.67-8.158s-9.37-2.719-14.503-2.719c-6.197,0-12.09,1.02-17.675,3.059
	c-5.592,2.039-10.504,5.099-14.73,9.178c-4.231,4.08-7.59,9.177-10.084,15.296c-2.491,6.119-3.738,13.336-3.738,21.641v93.134
	c0,14.356-2.912,25.38-8.724,33.084c-5.818,7.705-15.449,11.558-28.894,11.558c-12.689,0-21.641-3.853-26.853-11.558
	c-5.211-7.704-7.818-18.728-7.818-33.084l-0.226-239.748c0-14.35,2.605-25.38,7.818-33.085c5.211-7.704,14.162-11.556,26.853-11.556
	c13.442,0,23.073,3.852,28.891,11.556c5.814,7.705,8.726,18.735,8.726,33.085"/>
<path fill="#373B3D" d="M887.491-732.729c0,4.985-1.132,9.405-3.398,13.257s-5.212,7.064-8.838,9.63
	c-3.626,2.572-7.817,4.498-12.575,5.779c-4.76,1.286-9.632,1.926-14.617,1.926c-5.292,0-10.311-0.68-15.069-2.04
	c-4.758-1.359-8.95-3.359-12.576-6.005c-3.626-2.64-6.497-5.852-8.611-9.63c-2.118-3.773-3.173-8.079-3.173-12.917
	c0-4.379,1.02-8.418,3.061-12.123c2.039-3.7,4.792-6.912,8.27-9.63c3.473-2.72,7.625-4.833,12.464-6.346
	c4.833-1.507,10.118-2.266,15.862-2.266c4.985,0,9.857,0.68,14.616,2.039c4.758,1.36,8.95,3.326,12.576,5.892
	c3.626,2.572,6.532,5.745,8.724,9.518C886.393-741.867,887.491-737.562,887.491-732.729z M884.093-468.734
	c0,14.356-2.912,25.38-8.724,33.084c-5.819,7.705-15.449,11.558-28.894,11.558c-12.689,0-21.641-3.853-26.853-11.558
	c-5.211-7.704-7.817-18.728-7.817-33.084v-138.682c0-14.35,2.606-25.38,7.817-33.084c5.212-7.705,14.163-11.557,26.853-11.557
	c13.444,0,23.074,3.852,28.894,11.557c5.812,7.705,8.724,18.734,8.724,33.084V-468.734z"/>
<path fill="#373B3D" d="M1009.633-468.734c0,14.356-2.913,25.38-8.726,33.084c-5.817,7.705-15.448,11.558-28.892,11.558
	c-12.689,0-21.641-3.853-26.854-11.558c-5.212-7.704-7.816-18.728-7.816-33.084v-149.56c0-5.586,1.02-10.497,3.059-14.729
	c2.039-4.227,4.758-7.705,8.157-10.425c3.398-2.719,7.285-4.832,11.671-6.345c4.379-1.507,8.984-2.266,13.822-2.266
	c11.783,0,20.654,3.778,26.627,11.33c4.049,5.127,6.724,11.959,8.021,20.497C1009.32-616.192,1009.633-468.734,1009.633-468.734z"/>
<path fill="#373B3D" d="M1346.594-545.553c0,6.196-2.039,10.803-6.119,13.822c-4.078,3.024-9.743,4.532-16.995,4.532h-140.269
	c0.753,18.281,6.005,32.444,15.75,42.488c9.743,10.05,24.586,15.068,44.527,15.068c6.493,0,12.576-0.413,18.241-1.245
	c5.665-0.828,11.218-1.96,16.655-3.4c5.439-1.433,10.878-3.059,16.315-4.871c5.439-1.813,11.104-3.7,16.995-5.665
	c1.962-0.754,3.7-1.134,5.213-1.134c4.986,0,8.984,1.927,12.011,5.779c3.02,3.852,4.531,8.351,4.531,13.482
	c0,3.026-0.532,5.892-1.585,8.611c-3.025,7.251-8.012,13.256-14.957,18.016c-6.95,4.758-14.956,8.536-24.02,11.33
	c-9.064,2.798-18.661,4.719-28.779,5.777c-10.123,1.054-19.793,1.587-29.005,1.587c-17.376,0-33.577-2.492-48.607-7.479
	c-15.035-4.985-28.065-12.383-39.09-22.206c-11.029-9.818-19.68-22.128-25.945-36.938c-6.271-14.802-9.405-31.951-9.405-51.438
	c0-16.315,3.021-31.573,9.064-45.774c6.039-14.197,14.463-26.513,25.267-36.937c10.798-10.424,23.642-18.655,38.524-24.7
	c14.875-6.04,31.231-9.064,49.059-9.064c19.336,0,36.03,2.985,50.079,8.951c14.051,5.971,25.681,13.976,34.897,24.02
	c9.213,10.05,16.089,21.755,20.622,35.124C1344.102-574.446,1346.441-560.357,1346.594-545.553z M1286.09-559.376
	c-0.453-8.005-1.853-15.41-4.191-22.208c-2.346-6.797-5.665-12.689-9.971-17.675c-4.306-4.986-9.597-8.871-15.863-11.669
	c-6.271-2.793-13.562-4.193-21.867-4.193c-7.558,0-14.389,1.473-20.508,4.419c-6.117,2.946-11.409,6.951-15.862,12.01
	c-4.458,5.064-7.931,10.956-10.425,17.675c-2.49,6.725-3.964,13.937-4.418,21.641H1286.09z"/>
</svg>
